<svg width="154" height="32" viewBox="0 0 154 32" fill="none" xmlns="http://www.w3.org/2000/svg">
<path fill-rule="evenodd" clip-rule="evenodd" d="M9.10352 7.5C9.10352 11.6421 12.4614 15 16.6035 15C20.7457 15 24.1035 11.6421 24.1035 7.5C24.1035 3.35786 20.7457 0 16.6035 0C12.4614 0 9.10352 3.35786 9.10352 7.5ZM21.1035 7.5C21.1035 9.98528 19.0888 12 16.6035 12C14.1182 12 12.1035 9.98528 12.1035 7.5C12.1035 5.01472 14.1182 3 16.6035 3C19.0888 3 21.1035 5.01472 21.1035 7.5Z" fill="#2C1C96"/>
<path d="M3.00342 12.4078H16.5034V15.4078H0.00341797V0.0078125H16.5034V3.00781H3.00342V12.4078Z" fill="#2C1C96"/>
<path fill-rule="evenodd" clip-rule="evenodd" d="M24.9677 23.0029L2.56417 0.599328C1.6193 -0.34554 0.00371631 0.323509 0.00350713 1.65975L1.8782e-08 24.0633C-0.00012968 24.8918 0.671481 25.5636 1.5 25.5636H23.9071C25.2434 25.5636 25.9127 23.9478 24.9677 23.0029ZM3.00023 22.5636L3.00294 5.28074L20.2858 22.5636H3.00023Z" fill="#2C1C96"/>
<path fill-rule="evenodd" clip-rule="evenodd" d="M35.8919 14.8921V23.4562H32.3481V0.899999H40.8278C46.495 0.899999 48.506 4.34531 48.506 7.86094C48.506 10.7296 47.0294 13.1203 44.0622 14.175L49.0544 23.4562H45.145L40.5888 14.8921H35.8919ZM40.4481 11.714C43.8653 11.714 44.906 9.70314 44.906 7.94531C44.906 6.22969 44.1466 4.17656 40.4481 4.17656H35.8919V11.714H40.4481ZM53.395 16.7625C53.4794 19.125 55.645 20.7843 57.9091 20.7843C59.7653 20.7843 61.3685 20.0531 61.9872 18.1968L64.8841 19.0828C64.0122 22.0359 61.0028 23.7375 57.9513 23.7375C53.4231 23.7375 49.8935 20.3062 49.8935 15.75C49.8935 11.3765 53.17 7.7625 57.6278 7.7625C62.4231 7.7625 65.1372 11.0812 65.1372 15.7078C65.1372 16.0593 65.1231 16.4109 65.081 16.7625H53.395ZM57.656 10.7015C55.5466 10.7015 53.8872 12.0796 53.5778 14.189H61.6497C61.5372 11.9812 59.7794 10.7015 57.656 10.7015ZM70.87 23.4562H67.4388V0H70.87V23.4562ZM86.5169 23.4562H83.156C83.0716 23.0765 83.0153 21.8953 83.0153 21.3468C81.8903 23.2171 79.9356 23.7234 78.5013 23.7234C75.4919 23.7234 73.3122 21.8531 73.3122 19.1953V19.0265C73.3122 15.4546 77.0247 14.3296 79.7106 14.3296H81.6091C82.6497 14.3296 83.0435 13.7812 83.0435 13.0359C83.0435 11.8125 82.045 10.6875 80.02 10.6875C78.1497 10.6875 76.9122 11.7562 76.6591 13.2328L73.5513 12.5296C73.6778 11.2359 74.8591 9.29531 76.9966 8.35313C77.8825 7.95938 78.9935 7.7625 80.1185 7.7625C82.706 7.7625 84.8575 8.67656 85.8841 10.9125C86.2638 11.7281 86.4044 12.614 86.4044 13.6546V20.9812C86.4044 21.9234 86.4325 22.739 86.5169 23.4562ZM83.0153 17.2265V16.7343H79.6966C78.4028 16.7343 76.7435 17.4375 76.7435 18.8859C76.7435 20.1375 77.7419 20.9812 79.1903 20.9812C81.5247 20.9812 83.0153 19.5468 83.0153 17.2265ZM87.2294 8.08594H91.1388L95.92 18.1546L100.35 8.08594H104.062L93.5153 31.0359H89.845L94.0778 21.7265L87.2294 8.08594ZM121.931 7.91719C121.931 11.8125 119.062 15.1031 113.62 15.1031H109.598V23.4562H106.054V0.899999H114.042C119.695 0.899999 121.931 4.41563 121.931 7.91719ZM118.331 8.00156C118.331 6.3 117.431 4.17656 113.733 4.17656H109.598V11.8546H113.733C117.15 11.8546 118.331 9.77344 118.331 8.00156ZM135.764 23.4562H132.403C132.318 23.0765 132.262 21.8953 132.262 21.3468C131.137 23.2171 129.183 23.7234 127.748 23.7234C124.739 23.7234 122.559 21.8531 122.559 19.1953V19.0265C122.559 15.4546 126.272 14.3296 128.958 14.3296H130.856C131.897 14.3296 132.29 13.7812 132.29 13.0359C132.29 11.8125 131.292 10.6875 129.267 10.6875C127.397 10.6875 126.159 11.7562 125.906 13.2328L122.798 12.5296C122.925 11.2359 124.106 9.29531 126.243 8.35313C127.129 7.95938 128.24 7.7625 129.365 7.7625C131.953 7.7625 134.104 8.67656 135.131 10.9125C135.511 11.7281 135.651 12.614 135.651 13.6546V20.9812C135.651 21.9234 135.679 22.739 135.764 23.4562ZM132.262 17.2265V16.7343H128.943C127.65 16.7343 125.99 17.4375 125.99 18.8859C125.99 20.1375 126.989 20.9812 128.437 20.9812C130.772 20.9812 132.262 19.5468 132.262 17.2265ZM137.025 8.08594H140.934L145.715 18.1546L150.145 8.08594H153.858L143.311 31.0359H139.64L143.873 21.7265L137.025 8.08594Z" fill="white"/>
</svg>
